<svg width="216" height="60" viewBox="0 0 216 60" xmlns="http://www.w3.org/2000/svg" href="/"><title>Pri-Med logo</title><g fill="none" fill-rule="evenodd"><path d="M28.038 30.797c0-9.83-7.912-14.84-14.05-14.84-3.925 0-7.09 1.065-8.861 2.943l-.19-2.254H0v42.828h5.76V43.82c1.455.938 4.05 1.878 7.151 1.878 8.545 0 15.127-6.137 15.127-14.902zm-5.823 0c0 5.948-4.177 9.892-9.304 9.892-3.038 0-5.632-1.188-7.152-2.629V23.847c1.52-1.69 4.05-2.88 7.152-2.88 5.127 0 9.304 3.944 9.304 9.83zm26.772-9.705l-1.076-4.822c-4.303 0-8.228 1.315-9.747 4.822l-.253-4.446h-5.443V45.01h5.76v-13.4c0-8.077 5.57-10.518 10.19-10.518h.57zm3.797 23.918h5.823V16.645h-5.823V45.01zm91.103-.175v-19.91c0-5.26-4.304-9.142-10.127-9.142-5.252 0-8.354 1.815-10.316 4.007-1.456-2.128-4.493-4.007-8.038-4.007-4.494 0-6.52 1.128-8.734 3.506l-.253-2.817h-5.064v28.363h5.76v-19.41c0-2.567 2.278-4.695 6.328-4.695 4.179 0 6.33 1.878 6.33 4.696v19.41h5.76v-19.41c0-2.568 2.278-4.696 6.33-4.696 4.113 0 6.265 1.878 6.265 4.696v19.41h5.76zm30.443-18.282c0-5.26-4.494-10.77-12.405-10.77-6.646 0-14.24 5.26-14.24 14.903 0 8.828 7.215 14.84 15.379 14.84 3.861 0 6.456-.752 8.481-1.817l1.456-6.073c-2.658 1.878-5.506 2.879-9.177 2.879-6.709 0-10-4.946-10.191-8.452h17.28l3.228-3.194c.126-.626.19-1.439.19-2.316zm-5.823.124c0 .25 0 .502-.063.753h-14.43c.759-3.945 4.62-6.763 8.227-6.763 3.798 0 6.266 3.194 6.266 6.01zm36.392 18.158V.255h-5.76v17.407c-1.454-.94-4.049-1.879-7.15-1.879-8.545 0-15.128 6.136-15.128 14.903 0 9.829 7.912 14.84 14.051 14.84 3.925 0 7.089-1.065 8.861-2.944l.19 2.253h4.936zm-5.76-7.2c-1.518 1.69-4.049 2.88-7.15 2.88-5.128 0-9.305-3.943-9.305-9.83 0-5.948 4.177-9.892 9.304-9.892 3.039 0 5.633 1.19 7.152 2.63v14.213z" fill="#003678"></path><g fill="#5091CD"><path d="M80.292 11.638c1.246 0 2.256-.98 2.256-2.189 0-1.208-1.01-2.188-2.256-2.188-1.245 0-2.255.98-2.255 2.188 0 1.21 1.01 2.189 2.255 2.189"></path><path d="M60.691 12.494c4.862-.897 9.746-1.755 14.73-1.123.378.049.828.428 1.032.776.675 1.15 1.149 2.426 1.893 3.528.933 1.384 1.913 1.443 2.974.16.953-1.153 1.668-2.495 2.533-3.722.23-.328.622-.77.942-.774 4.257-.038 8.516-.047 12.772.044.721.015 1.43.532 2.145.818l-.119.354c-4.7 0-9.4-.015-14.101.03-.354.003-.784.37-1.042.678-.967 1.154-1.807 2.416-2.824 3.523-1.4 1.526-2.56 1.51-3.895-.083-.773-.926-1.365-2.016-1.94-3.085-.366-.68-.815-.99-1.595-1.102-4.178-.589-8.35-.284-12.526-.024-.324.02-.652.002-.979.002m35.009 3.4c-3.669 2.15-7.162 3.883-10.577 5.245 4.089-.792 7.63-2.548 10.576-5.245zm-15.531 6.415l2.24-.783c4.788-1.674 9.688-4.074 14.98-7.34l1.717-1.058-1.335 1.503c-3.907 4.398-9.033 6.91-15.236 7.466l-2.366.212zm-16.313-6.415c2.945 2.697 6.488 4.453 10.577 5.245-3.416-1.362-6.91-3.095-10.577-5.245zm15.53 6.415l-2.366-.212c-6.203-.556-11.329-3.068-15.236-7.466l-1.335-1.503 1.716 1.059c5.293 3.265 10.193 5.665 14.981 7.339l2.24.783zm-.661 6.487c-1.005.746-.72 1.495.07 2.1 1.195.914 2.512 1.676 3.667 2.632.673.557 1.132 1.367 1.686 2.063-.828.445-1.658.891-2.49 1.33-.021.012-.071-.03-.196-.084 1.124-.903.503-1.642-.281-2.24-1.164-.887-2.457-1.614-3.587-2.538-.649-.532-1.083-1.319-1.615-1.991.823-.454 1.644-.912 2.472-1.358.047-.026.147.045.274.086m-2.417 13.801c.11.148.219.3.327.453.346.488.673.95 1.096 1.297.617.505 1.3.96 1.96 1.401.539.36 1.096.732 1.62 1.133.454.345.974.818.981 1.416.003.195-.05.387-.159.576.49-.26.978-.522 1.465-.783l.207-.112a25.933 25.933 0 01-.341-.468c-.365-.507-.709-.988-1.152-1.353-.644-.534-1.357-1.018-2.045-1.485-.536-.365-1.09-.74-1.614-1.141-.536-.41-.806-.843-.803-1.286.002-.207.064-.407.185-.601-.505.275-1.008.554-1.511.833l-.216.12zm5.34 7.007a.394.394 0 01-.18-.056 1.344 1.344 0 00-.103-.05l-.334-.146.284-.228c.355-.285.533-.562.53-.822-.005-.412-.463-.808-.807-1.07a31.414 31.414 0 00-1.598-1.116c-.669-.447-1.36-.91-1.994-1.428-.47-.385-.83-.893-1.178-1.384a16.996 16.996 0 00-.47-.64l-.162-.203.669-.37c.676-.375 1.352-.75 2.032-1.117.13-.068.252-.015.35.03a.94.94 0 00.104.04l.403.135-.34.254c-.367.27-.553.546-.556.815-.003.37.34.711.63.932.513.393 1.062.766 1.593 1.126.697.473 1.418.963 2.079 1.511.487.402.864.928 1.23 1.437.16.223.32.447.489.659l.164.206-.672.36c-.683.367-1.368.734-2.053 1.095a.217.217 0 01-.11.03zm-2.896-26.616c-1.005.745-.72 1.495.071 2.1 1.194.914 2.511 1.675 3.666 2.631.673.557 1.132 1.368 1.687 2.064-.83.444-1.659.891-2.49 1.33-.022.012-.072-.03-.197-.084 1.124-.903.503-1.642-.281-2.24-1.164-.887-2.457-1.614-3.587-2.538-.648-.532-1.083-1.319-1.615-1.991.823-.455 1.644-.912 2.472-1.358.048-.026.148.044.274.086m.101 12.41c-1.006.745-.72 1.495.07 2.1 1.194.914 2.512 1.676 3.667 2.631.673.558 1.132 1.368 1.686 2.064-.829.445-1.658.89-2.49 1.33-.021.011-.071-.03-.196-.084 1.123-.902.502-1.642-.281-2.24-1.164-.887-2.457-1.614-3.587-2.537-.649-.533-1.083-1.32-1.615-1.991.823-.456 1.644-.913 2.471-1.36.048-.024.148.046.275.087"></path><path d="M68.88 11.869c1.786 0 3.577.09 5.36.34.883.126 1.413.492 1.828 1.263.532.99 1.135 2.113 1.905 3.033.609.728 1.16 1.087 1.684 1.1.517.01 1.092-.324 1.737-1.028.585-.636 1.124-1.343 1.645-2.026.376-.493.764-1.002 1.17-1.486.153-.183.7-.785 1.28-.79 3.768-.036 7.6-.032 11.303-.031h2.27l-.17-.084c-.468-.235-.91-.458-1.332-.467-4.644-.1-9.26-.076-12.761-.044-.1.001-.38.2-.688.64-.328.465-.64.957-.942 1.433-.495.778-1.006 1.583-1.606 2.31-.592.714-1.195 1.057-1.785 1.033-.606-.03-1.16-.428-1.693-1.218-.44-.652-.789-1.365-1.127-2.055a23.127 23.127 0 00-.775-1.49c-.177-.3-.552-.59-.803-.624-3.253-.412-6.51-.174-9.61.267a69.349 69.349 0 013.11-.076zm10.804 6.355h-.042c-.716-.016-1.42-.45-2.152-1.323-.81-.97-1.43-2.122-1.976-3.138-.321-.596-.677-.842-1.363-.94-3.944-.556-7.966-.304-11.855-.06l-.606.038c-.23.014-.462.01-.693.006l-.306-.003-.057-.615c4.526-.834 9.656-1.78 14.827-1.126.506.066 1.028.528 1.263.928.293.499.55 1.023.798 1.53.329.672.668 1.365 1.084 1.982.41.607.814.924 1.202.943.391.03.812-.253 1.27-.808.575-.696 1.076-1.484 1.56-2.246.306-.482.623-.98.958-1.457.236-.337.707-.902 1.197-.906 3.506-.032 8.128-.056 12.781.044.564.012 1.092.278 1.603.534.217.11.434.22.652.306l.272.11-.28.842-3.03-.001c-3.701-.003-7.53-.005-11.296.031-.19.002-.535.245-.803.566-.398.474-.781.977-1.152 1.463-.53.695-1.077 1.413-1.682 2.07-.759.828-1.47 1.23-2.174 1.23zm17.863-3.787c-3.986 4.487-9.057 6.83-15.039 7.367 5.316-1.859 10.27-4.426 15.04-7.367m-35.541 0c3.987 4.487 9.058 6.83 15.04 7.367-5.315-1.859-10.27-4.426-15.04-7.367m14.306 15.7c.111.149.22.3.327.453.346.49.674.952 1.097 1.298.617.505 1.3.96 1.96 1.401.538.36 1.096.733 1.62 1.133.453.345.974.819.982 1.416a1.12 1.12 0 01-.16.577c.557-.296 1.115-.596 1.673-.895-.117-.154-.23-.312-.343-.469-.364-.507-.708-.987-1.15-1.353-.643-.532-1.353-1.014-2.039-1.48-.538-.366-1.095-.743-1.62-1.146-.537-.41-.807-.843-.804-1.286.002-.207.064-.407.185-.601-.463.253-.925.509-1.388.764l-.34.188zm5.34 7.008a.384.384 0 01-.178-.055 1.45 1.45 0 00-.103-.05l-.335-.147.284-.228c.355-.285.533-.561.53-.822-.006-.411-.463-.808-.807-1.07a30.947 30.947 0 00-1.598-1.116c-.669-.446-1.36-.909-1.995-1.428-.47-.385-.83-.893-1.178-1.385-.154-.217-.307-.434-.47-.64l-.162-.203.794-.439c.635-.35 1.27-.702 1.908-1.047.13-.068.25-.014.349.029.03.013.066.03.103.042l.409.132-.344.256c-.367.27-.554.546-.556.815-.002.371.34.712.63.932.515.395 1.067.77 1.6 1.132.695.472 1.413.96 2.072 1.505.486.403.864.928 1.229 1.436.16.223.32.447.49.66l.165.207-.44.235c-.76.409-1.523.818-2.285 1.22a.24.24 0 01-.113.029zm-2.933 4.11c-1.006.746-.721 1.495.07 2.1 1.194.913 2.511 1.674 3.666 2.632.673.556 1.132 1.367 1.687 2.063-.83.444-1.659.89-2.49 1.329-.022.013-.072-.028-.197-.083 1.124-.903.503-1.642-.281-2.24-1.163-.887-2.457-1.614-3.587-2.538-.648-.533-1.083-1.32-1.615-1.99.824-.456 1.644-.913 2.472-1.36.048-.025.148.045.274.087"></path><path d="M76.34 24.329c.111.148.219.3.327.453.346.49.673.95 1.097 1.298.617.505 1.299.96 1.959 1.4.54.36 1.097.733 1.621 1.134.453.345.974.819.981 1.416.003.195-.05.388-.16.577.44-.234.88-.47 1.32-.706l.353-.19c-.116-.153-.229-.311-.342-.468-.364-.508-.708-.988-1.15-1.353-.644-.534-1.355-1.016-2.042-1.483a35.142 35.142 0 01-1.618-1.144c-.536-.41-.806-.842-.803-1.285.002-.207.064-.407.185-.602-.497.272-.993.546-1.49.82l-.237.133zm5.339 7.008a.382.382 0 01-.177-.055 1.546 1.546 0 00-.104-.05l-.334-.147.284-.228c.355-.285.532-.562.53-.822-.006-.412-.464-.808-.807-1.07a31.548 31.548 0 00-1.599-1.117c-.668-.446-1.36-.909-1.993-1.426-.47-.386-.83-.895-1.179-1.386-.154-.217-.307-.434-.47-.64l-.161-.203.691-.383c.669-.37 1.337-.74 2.01-1.103.129-.068.251-.014.349.029.031.013.066.029.104.041l.406.134-.343.254c-.366.271-.552.546-.555.816-.002.37.34.71.63.932a34.56 34.56 0 001.596 1.129c.697.472 1.416.961 2.076 1.508.487.402.864.928 1.228 1.436.16.224.321.448.49.66l.165.207-.817.438c-.635.34-1.27.681-1.908 1.017a.24.24 0 01-.112.029zm-5.238 5.403c.11.148.219.3.326.452.347.49.674.951 1.098 1.3.615.501 1.295.955 1.953 1.395.54.361 1.1.735 1.627 1.137.453.345.973.818.981 1.416.002.195-.05.387-.16.576a334.23 334.23 0 001.673-.894 30.28 30.28 0 01-.342-.469c-.364-.508-.708-.987-1.151-1.354-.643-.531-1.352-1.014-2.039-1.48a34.59 34.59 0 01-1.62-1.146c-.536-.41-.806-.842-.803-1.285.002-.206.063-.407.185-.601-.532.29-1.063.584-1.594.879l-.134.073zm5.338 7.006c-.07 0-.13-.03-.174-.053a1.817 1.817 0 00-.104-.05l-.338-.146.286-.23c.354-.284.533-.56.529-.822-.005-.412-.462-.808-.806-1.07-.516-.394-1.07-.763-1.605-1.121-.666-.445-1.356-.905-1.988-1.422-.47-.386-.83-.894-1.178-1.386-.154-.217-.307-.433-.47-.639l-.161-.204.585-.324c.704-.39 1.408-.78 2.116-1.162.13-.067.25-.015.347.028a.94.94 0 00.105.042l.409.132-.345.256c-.366.271-.553.547-.555.816-.003.37.34.711.629.932.516.395 1.067.77 1.6 1.13.695.473 1.414.961 2.072 1.506.488.404.865.929 1.23 1.437.16.223.32.447.49.66l.164.206-.44.236c-.76.408-1.522.817-2.285 1.22a.24.24 0 01-.113.028z"></path></g><path d="M210.691 3.932h.646c.545 0 1.145-.034 1.145-.674 0-.639-.6-.672-1.145-.661h-.646v1.335zm-.884-2.075h1.86c1.156 0 1.7.516 1.7 1.435 0 .83-.5 1.234-1.156 1.312l1.258 2.02h-.93l-1.202-1.952h-.646v1.951h-.884V1.857zm1.621 5.843c1.916 0 3.47-1.537 3.47-3.432s-1.554-3.432-3.47-3.432c-1.916 0-3.469 1.537-3.469 3.432s1.553 3.432 3.47 3.432zm0-7.604c2.324 0 4.217 1.873 4.217 4.172 0 2.3-1.893 4.172-4.217 4.172s-4.217-1.873-4.217-4.172c0-2.3 1.893-4.172 4.217-4.172z" fill="#003678"></path></g></svg>